<svg width="541" height="500" xmlns="http://www.w3.org/2000/svg" xml:space="preserve" version="1.1">

 <g>
  <title>Layer 1</title>
  <g stroke="null" id="Background_Simple">
   <g stroke="null" id="svg_1">
    <path stroke="null" id="svg_2" fill="#92E3A9" d="m516.65333,232.589c-15.25328,-40.723 -34.06315,-78.116 -55.79927,-111.106c-23.45522,-35.598 -47.3651,-59.664 -78.21021,-75.238c-20.88335,-10.545 -42.66621,-16.579 -64.54785,-17.7c-40.68924,-2.085 -74.2525,12.602 -107.67928,49.656c-35.83654,39.726 -69.26785,84.683 -104.19055,126.402c-3.6448,4.355 -7.30469,8.678 -10.98342,12.959c-60.90606,70.872 -90.48899,196.763 -49.30512,227.537l473.91037,0c0,0 43.1073,-3.454 32.48354,-73.671c-7.43588,-49.149 -19.57593,-95.849 -35.6782,-138.839z"/>
    <path stroke="null" id="svg_3" fill="#FFFFFF" opacity="0.7" d="m516.65333,232.589c-15.25328,-40.723 -34.06315,-78.116 -55.79927,-111.106c-23.45522,-35.598 -47.3651,-59.664 -78.21021,-75.238c-20.88335,-10.545 -42.66621,-16.579 -64.54785,-17.7c-40.68924,-2.085 -74.2525,12.602 -107.67928,49.656c-35.83654,39.726 -69.26785,84.683 -104.19055,126.402c-3.6448,4.355 -7.30469,8.678 -10.98342,12.959c-60.90606,70.872 -90.48899,196.763 -49.30512,227.537l473.91037,0c0,0 43.1073,-3.454 32.48354,-73.671c-7.43588,-49.149 -19.57593,-95.849 -35.6782,-138.839z"/>
   </g>
  </g>
  <g id="Line">
   <g id="svg_4">
    <line id="svg_5" stroke-miterlimit="10" stroke="#263238" fill="none" y2="470.677" x2="464.701" y1="95.541" x1="464.701"/>
    <line id="svg_6" stroke-miterlimit="10" stroke="#263238" fill="none" y2="86.093" x2="464.701" y1="58.632" x1="464.701"/>
   </g>
  </g>
  <g id="Floor">
   <line id="svg_7" stroke-miterlimit="10" stroke="#263238" fill="none" y2="470.677" x2="728.67" y1="470.677" x1="25.031"/>
  </g>
  <g id="Clock">
   <g id="svg_8">
    <ellipse id="svg_9" stroke-miterlimit="10" stroke="#263238" fill="#263238" ry="40.429" rx="40.429" cy="135.709" cx="93.277" transform="matrix(0.9571 -0.2898 0.2898 0.9571 -35.3241 32.8531)"/>
    <ellipse id="svg_10" stroke-miterlimit="10" stroke="#263238" fill="#FFFFFF" ry="37.352" rx="37.352" cy="135.709" cx="93.277" transform="matrix(0.3827 -0.9239 0.9239 0.3827 -67.7978 169.952)"/>
    <polyline id="svg_11" stroke-miterlimit="10" stroke="#263238" fill="none" points="105.678,125.941 93.277,135.709 93.277,168.6   "/>
   </g>
  </g>
  <g id="Picture">
   <g id="svg_12">
    <rect id="svg_13" fill="#263238" height="168.572" width="241.05" y="104.986" x="153.509"/>
    <rect id="svg_14" fill="#FFFFFF" height="154.135" width="228.802" y="112.205" x="159.633"/>
    <rect id="svg_15" fill="#CCCCCC" height="127.141" width="192.679" y="125.702" x="177.695"/>
    <rect id="svg_16" fill="#FFFFFF" height="107.62" width="172.097" y="135.462" x="187.986"/>
    <rect id="svg_17" fill="#CCCCCC" height="64.452" width="110.771" y="157.046" x="218.649"/>
    <rect id="svg_18" fill="#FFFFFF" height="50.313" width="93.963" y="164.116" x="227.053"/>
    <rect id="svg_19" fill="#CCCCCC" height="26.024" width="48.601" y="176.261" x="249.734"/>
   </g>
  </g>
  <g id="Window"/>
  <g id="Plant">
   <g id="svg_35">
    <polygon id="svg_36" fill="#263238" points="141.59,404.702 92.109,404.702 97.057,470.677 136.642,470.677   "/>
    <polygon id="svg_37" fill="#263238" points="113.955,270.317 113.955,414.716 119.013,409.659 119.013,325.675 134.673,288.657     118.041,319.704 117.417,274.892   "/>
    <g id="svg_38">
     <polygon id="svg_39" fill="#92E3A9" points="104.105,263.955 75.305,245.715 92.585,264.435 64.744,257.715 84.425,267.315      50.824,267.315 78.665,271.635 46.024,277.876 72.425,276.916 47.944,286.996 74.345,282.676 39.304,306.676 81.065,286.516      58.984,308.596 79.145,295.636 64.744,321.077 85.865,296.596 75.305,318.677 94.025,295.156 94.025,311.477 102.665,291.796      102.665,302.836 111.306,279.796 111.306,291.316 117.417,274.892 118.986,270.676 100.266,245.235 106.026,260.595      100.266,255.795    "/>
     <polygon id="svg_40" fill="#92E3A9" points="100.462,309.113 66.631,313.314 91.868,316.8 66.095,329.29 87.394,324.207      61.439,345.546 85.688,331.202 64.438,356.752 84.221,339.244 71.713,362.578 89.362,342.474 77.537,383.267 96.992,341.172      93.959,372.251 101.301,349.437 106.334,378.234 107.102,345.91 112.967,369.673 112.49,339.616 122.855,352.222      117.031,331.533 124.042,340.061 116.084,316.776 123.4,325.675 117.69,309.107 116.224,304.854 85.607,297.091 99.811,305.298      92.313,305.248    "/>
     <polygon id="svg_41" fill="#92E3A9" points="100.462,309.113 66.631,313.314 91.868,316.8 66.095,329.29 87.394,324.207      61.439,345.546 85.688,331.202 64.438,356.752 84.221,339.244 71.713,362.578 89.362,342.474 77.537,383.267 96.992,341.172      93.959,372.251 101.301,349.437 106.334,378.234 107.102,345.91 112.967,369.673 112.49,339.616 122.855,352.222      117.031,331.533 124.042,340.061 116.084,316.776 123.4,325.675 117.69,309.107 116.224,304.854 85.607,297.091 99.811,305.298      92.313,305.248    "/>
     <polygon id="svg_42" fill="#92E3A9" points="131.295,255.13 176.016,248.841 144.937,262 182.21,269.091 153.214,269.931      193.769,288.279 157.807,278.291 193.796,303.646 162.456,288.071 186.498,313.605 156.993,293.975 186.181,342.077      146.785,294.94 161.378,333.648 144.122,306.997 147.611,345.566 135.487,304.486 136.176,336.902 126.425,298.292      117.513,317.99 117.831,289.519 111.802,302.844 113.955,270.317 107.665,284.221 109.257,261.061 109.666,255.115      146.152,234.632 130.812,250.026 140.386,247.378    "/>
     <polygon id="svg_43" fill="#92E3A9" points="125.489,247.249 143.73,218.449 125.009,235.729 131.729,207.889 122.129,227.569      122.129,193.968 117.809,221.809 111.569,189.168 112.529,215.569 102.448,191.088 106.769,217.489 82.768,182.448      102.928,224.209 80.848,202.128 93.808,222.289 68.368,207.889 92.848,229.009 70.768,218.449 94.288,237.169 77.968,237.169      97.648,245.809 86.608,245.809 109.649,254.45 98.128,254.45 114.552,260.561 118.769,262.13 144.21,243.409 128.849,249.169      133.649,243.409    "/>
    </g>
   </g>
  </g>
  <g id="Suitcase"/>
  <g id="Character_1">
   <g id="svg_78">
    <g id="svg_79">
     <rect id="svg_80" stroke-miterlimit="10" stroke="#263238" fill="#B8B8B8" height="45.665" width="54.172" y="250.563" x="254.811"/>
     <rect id="svg_81" stroke-miterlimit="10" stroke="#263238" fill="#263238" height="45.665" width="54.172" y="250.563" x="252.661"/>
    </g>
    <g id="svg_82">
     <path id="svg_83" stroke-miterlimit="10" stroke="#263238" fill="#92E3A9" d="m350.518,225.266c0,0 -24.827,9.59 -24.827,12.666c0,3.076 -2.089,54.086 -2.089,54.086l67.368,-2.615c0,0 -0.615,-53.217 -1.692,-54.909c-1.077,-1.692 -21.225,-10.459 -21.225,-10.459l-17.535,1.231z"/>
     <path id="svg_84" stroke-miterlimit="10" stroke="#263238" fill="#FFFFFF" d="m351.101,222.256c0,0 -3.219,2.058 -1.61,6.08c1.61,4.022 16.962,38.391 16.962,38.391s3.764,-20.205 4.457,-27.534s-0.693,-12.975 -1.486,-14.659c-0.792,-1.684 -3.07,-3.665 -3.07,-3.665l-15.253,1.387z"/>
     <path id="svg_85" stroke-miterlimit="10" stroke="#263238" fill="#FFFFFF" d="m350.705,213.837c0,0 0.396,8.419 0.495,9.706c0.099,1.288 11.489,8.716 11.489,8.716s3.169,-2.971 3.962,-6.438c0.792,-3.466 0.198,-8.023 0.198,-8.023l-16.144,-3.961z"/>
     <g id="svg_86">
      <path id="svg_87" stroke-miterlimit="10" stroke="#263238" fill="#263238" d="m341.456,203.855c0,0 1.758,3.892 -0.251,6.026c-2.009,2.134 -5.901,0.502 -9.29,5.775c-3.39,5.273 2.134,5.398 2.636,6.905c0.502,1.507 -1.004,2.26 -0.251,4.645c0.753,2.385 5.398,2.009 6.403,1.507c1.004,-0.502 1.381,2.385 3.892,2.511c2.511,0.126 4.52,-1.632 4.896,-2.887c0.377,-1.255 2.511,-0.628 3.39,-2.887c0.879,-2.26 0.879,-5.524 -0.502,-7.909c-1.381,-2.385 -1.507,-4.017 -3.013,-7.658s-7.031,-8.664 -7.91,-6.028z"/>
      <path id="svg_88" stroke-miterlimit="10" stroke="#263238" fill="#FFFFFF" d="m348.989,190.799c0,0 -3.264,1.004 -3.766,6.779c-0.502,5.775 0.879,8.788 0.879,8.788s-3.39,-1.632 -3.515,0.502c-0.126,2.134 1.632,5.775 2.762,6.152c1.13,0.377 3.264,-0.753 3.264,-0.753s2.26,4.143 3.766,5.273c1.507,1.13 7.03,3.892 10.671,3.39c3.641,-0.502 6.277,-4.143 6.654,-9.792c0.377,-5.649 -0.628,-14.939 -2.511,-17.952c-1.883,-3.015 -11.55,-8.162 -18.204,-2.387z"/>
      <path id="svg_89" stroke-miterlimit="10" stroke="#263238" fill="#263238" d="m346.102,206.366c0,0 -0.879,-3.515 2.636,-7.03c3.515,-3.515 8.914,-4.394 10.797,-6.026c1.883,-1.632 2.762,-3.641 2.762,-3.641s0.251,2.511 2.009,3.766c1.758,1.255 4.143,2.511 4.143,2.511s0.126,-2.762 -1.507,-6.528c-1.632,-3.766 -6.905,-5.775 -6.905,-5.775s-4.771,-3.139 -12.429,0.628c-7.658,3.766 -8.537,14.939 -7.281,17.45c1.255,2.511 2.26,5.147 2.26,5.147s2.134,-1.883 3.515,-0.502z"/>
      <path id="svg_90" fill="#263238" d="m356.619,204.855c0.231,0.834 -0.033,1.635 -0.59,1.788c-0.556,0.154 -1.194,-0.397 -1.425,-1.231s0.033,-1.634 0.59,-1.788c0.556,-0.154 1.194,0.397 1.425,1.231z"/>
      <path id="svg_91" fill="#263238" d="m366.37,201.97c0.231,0.834 -0.033,1.634 -0.59,1.788c-0.556,0.154 -1.194,-0.397 -1.425,-1.231c-0.231,-0.834 0.033,-1.635 0.59,-1.788c0.557,-0.154 1.195,0.397 1.425,1.231z"/>
      <path id="svg_92" stroke-miterlimit="10" stroke="#263238" fill="none" d="m364.175,207.201c0,0 0.594,1.189 0.198,1.783c-0.396,0.594 -1.288,1.189 -2.179,0.792"/>
      <path id="svg_93" stroke-miterlimit="10" stroke="#263238" fill="none" d="m365.958,211.757c0,0 -2.773,3.07 -7.428,1.387"/>
      <path id="svg_94" stroke-miterlimit="10" stroke="#263238" fill="none" d="m351.695,203.041c0,0 2.179,-1.882 4.853,-1.882"/>
      <path id="svg_95" stroke-miterlimit="10" stroke="#263238" fill="none" d="m362.689,199.574c0,0 2.278,-2.476 4.754,-1.486"/>
     </g>
     <path id="svg_96" stroke-miterlimit="10" stroke="#263238" fill="none" d="m387.893,238.647c0,0 -8.613,43.681 -10.305,50.603"/>
     <path id="svg_97" stroke-miterlimit="10" stroke="#263238" fill="none" d="m331.996,243.623c0,0 8.524,42.243 8.062,46.088"/>
     <path id="svg_98" stroke-miterlimit="10" stroke="#263238" fill="none" d="m344.98,229.88l3.23,12.612l4.153,0.923l-2.461,3.384c0,0 8.306,18.303 11.228,23.533c2.922,5.229 7.537,13.843 7.537,13.843l-2,-15.381"/>
     <path id="svg_99" stroke-miterlimit="10" stroke="#263238" fill="none" d="m373.742,228.496l2.461,12.151l-2.922,1.077l2.615,3.076c0,0 -0.154,4.461 -2.615,13.843c-2.461,9.382 -4.307,13.535 -4.307,13.535"/>
     <rect id="svg_100" stroke-miterlimit="10" stroke="#263238" fill="#FFFFFF" height="3.691" width="9.075" y="255.258" x="375.742"/>
    </g>
    <g id="svg_101">
     <path id="svg_102" stroke-miterlimit="10" stroke="#263238" fill="#FFFFFF" d="m323.866,278.148l-0.947,0c-3.518,0 -6.37,2.852 -6.37,6.37l0,0.706l13.686,0l0,-0.706c0,-3.519 -2.852,-6.37 -6.369,-6.37z"/>
     <rect id="svg_103" stroke-miterlimit="10" stroke="#263238" fill="#FFFFFF" height="3.507" width="13.735" y="284.049" x="316.524"/>
     <circle id="svg_104" stroke-miterlimit="10" stroke="#263238" fill="#FFFFFF" r="0.946" cy="277.336" cx="323.335"/>
    </g>
    <g id="svg_105">
     <rect id="svg_106" stroke-miterlimit="10" stroke="#263238" fill="#CCCCCC" height="174.449" width="279.095" y="296.228" x="190.324"/>
     <rect id="svg_107" stroke-miterlimit="10" stroke="#263238" fill="#263238" height="34.01" width="279.095" y="296.228" x="190.324"/>
     <rect id="svg_108" stroke-miterlimit="10" stroke="#263238" fill="#A6A6A6" height="174.449" width="88.036" y="296.228" x="190.324"/>
     <rect id="svg_109" stroke-miterlimit="10" stroke="#263238" fill="#263238" height="33.232" width="88.036" y="296.228" x="190.324"/>
     <rect id="svg_110" stroke-miterlimit="10" stroke="#263238" fill="#FFFFFF" height="16.419" width="287.329" y="306.489" x="186.219"/>
     <rect id="svg_111" stroke-miterlimit="10" stroke="#263238" fill="#FFFFFF" height="16.419" width="190.626" y="306.489" x="282.922"/>
     <rect id="svg_112" stroke-miterlimit="10" stroke="#263238" fill="#FFFFFF" height="16.419" width="287.329" y="287.505" x="186.219"/>
     <rect id="svg_113" stroke-miterlimit="10" stroke="#263238" fill="#FFFFFF" height="16.419" width="190.626" y="287.505" x="282.922"/>
    </g>
   </g>
  </g>
  <g id="Character_2">
   <g id="svg_114">
    <g id="svg_115">
     <path id="svg_116" stroke-miterlimit="10" stroke="#263238" fill="#FFFFFF" d="m497.619,459.785c0,0 0.858,10.934 -0.429,12.006c-1.286,1.072 -14.365,0.643 -14.365,0.643l0.214,-14.365l14.58,1.716z"/>
     <path id="svg_117" stroke-miterlimit="10" stroke="#263238" fill="#FFFFFF" d="m497.19,471.792c0.393,-0.328 0.586,-1.58 0.664,-3.157l-14.982,0.697l-0.046,3.103c0,0 13.078,0.429 14.364,-0.643z"/>
    </g>
    <path id="svg_118" stroke-miterlimit="10" stroke="#263238" fill="#263238" d="m491.187,373.812l4.502,79.113l1.501,1.715l0.429,5.145c0,0 -4.717,0.643 -10.077,0.858c-5.36,0.214 -5.36,0.214 -5.36,0.214l1.715,-78.684l5.146,-19.51l2.144,11.149z"/>
    <g id="svg_119">
     <path id="svg_120" stroke-miterlimit="10" stroke="#263238" fill="#FFFFFF" d="m465.031,457.213l-10.077,6.003l-10.505,3.002c0,0 -4.931,1.286 -5.146,2.358c-0.214,1.072 -0.643,3.216 0.858,4.074c1.501,0.858 13.078,2.358 22.083,2.358s22.512,-0.429 23.369,-1.286c0.858,-0.858 -0.214,-14.365 -0.214,-14.365l-20.368,-2.144z"/>
     <path id="svg_121" stroke-miterlimit="10" stroke="#263238" fill="#FFFFFF" d="m485.613,473.721c0.208,-0.208 0.302,-1.162 0.326,-2.483c-2.903,0.363 -7.967,0.844 -16.191,1.196c-11.879,0.509 -25.497,-1.264 -30.661,-2.026c0.006,0.874 0.232,1.76 1.074,2.241c1.501,0.858 13.078,2.358 22.083,2.358s22.511,-0.428 23.369,-1.286z"/>
    </g>
    <path id="svg_122" stroke-miterlimit="10" stroke="#263238" fill="#263238" d="m460.743,327.502c0,0 5.574,58.959 6.003,63.033c0.429,4.074 0.643,62.604 0.643,62.604l-2.573,0.858l-1.286,3.216c0,0 11.577,6.646 16.08,6.861c4.502,0.214 5.789,-1.715 5.789,-1.715s1.715,-6.217 1.715,-7.29c0,-1.072 0,-4.931 0,-4.931l3.001,-65.82l6.003,-49.097l4.288,-12.221l-40.307,-0.214l0.644,4.716z"/>
    <path id="svg_123" stroke-miterlimit="10" stroke="#263238" fill="#263238" d="m459.851,224.913c0,0 -6.552,10.524 -6.95,15.885c-0.397,5.361 0,28.196 -1.191,27.6s16.282,-42.691 16.282,-42.691l-8.141,-0.794z"/>
    <g id="svg_124">
     <path id="svg_125" stroke-miterlimit="10" stroke="#263238" fill="#FFFFFF" d="m432.712,202.183c0,0 1.413,8.123 2.296,9.359c0.883,1.236 2.296,1.942 3.178,3.531s1.059,6.357 2.119,6.887c1.06,0.53 4.238,-0.53 4.238,-0.53s3.885,4.591 4.944,5.827c1.059,1.236 2.649,0.706 4.061,0.176c1.413,-0.53 3.708,-2.825 3.708,-2.825l3.355,2.296l12.537,-18.541c0,0 -4.238,-4.414 -4.591,-5.474c-0.353,-1.06 -0.514,-1.969 -0.514,-1.969s-4.606,-5.977 -12.906,-8.272c-8.299,-2.296 -15.009,-0.353 -17.305,2.119c-2.294,2.471 -5.12,7.416 -5.12,7.416z"/>
     <path id="svg_126" stroke-miterlimit="10" stroke="#263238" fill="#263238" d="m436.569,187.186c0,0 -1.526,4.769 -3.052,5.913s-4.769,-0.572 -5.723,4.006c-0.954,4.578 2.289,4.006 2.289,4.006s-2.098,2.289 0.954,3.052c3.052,0.763 7.249,-5.532 7.249,-5.532s1.335,1.526 2.289,3.434c0.954,1.908 2.861,2.098 4.578,1.908c1.717,-0.191 2.861,-0.572 2.861,-0.572s0.954,4.006 2.098,4.197c1.145,0.191 2.671,0 2.861,-0.572c0.191,-0.572 -0.191,-6.867 3.052,-7.249s6.295,3.815 7.63,4.006c1.335,0.191 4.387,-2.289 4.387,-2.861c0,-0.572 -1.717,-5.341 -1.908,-7.439c-0.191,-2.098 -1.526,-7.249 -6.676,-10.491c-5.15,-3.243 -11.064,-1.717 -11.064,-1.717s-8.01,-1.719 -11.825,5.911z"/>
     <path id="svg_127" stroke-miterlimit="10" stroke="#263238" fill="#FFFFFF" d="m454.785,204.831c0,0 -2.815,-5.521 1.241,-5.056c4.056,0.465 5.115,3.82 4.939,7.351c-0.177,3.531 -3.178,3.531 -3.178,3.531"/>
     <path id="svg_128" stroke-miterlimit="10" stroke="#263238" fill="none" d="m438.038,212.867c0,0 1.166,-1.632 3.614,-1.865"/>
     <path id="svg_129" stroke-miterlimit="10" stroke="#263238" fill="none" d="m440.952,214.732c0,0 1.67,0.147 2.719,-2.418"/>
     <path id="svg_130" stroke-miterlimit="10" stroke="#263238" fill="none" d="m447.015,221.727c0,0 1.166,-1.749 0.583,-3.731"/>
     <polygon id="svg_131" stroke-miterlimit="10" stroke="#263238" fill="#263238" points="457.257,224.608 460.101,220.751 460.612,226.904         "/>
    </g>
    <g id="svg_132">
     <path id="svg_133" stroke-miterlimit="10" stroke="#263238" fill="#92E3A9" d="m473.75,205.652c0,0 -15.091,24.423 -16.481,28.394c-1.39,3.971 -6.751,24.026 -6.95,30.976c-0.199,6.95 -4.17,65.128 -4.17,65.128s13.701,1.986 20.055,0.397s11.12,-4.368 12.509,-4.567c1.39,-0.199 11.715,3.971 13.899,4.17c2.184,0.199 11.517,-2.383 11.517,-2.383s0.993,-19.459 -0.596,-30.181c-1.589,-10.722 -2.978,-17.076 -2.978,-17.076s-0.397,-32.366 -4.964,-45.868c-4.567,-13.502 -15.488,-24.026 -16.083,-24.423c-0.595,-0.397 -4.169,-5.758 -5.758,-4.567z"/>
     <path id="svg_134" stroke-miterlimit="10" stroke="#263238" fill="none" d="m477.92,210.617c0,0 -11.914,15.686 -14.098,19.459c-2.184,3.773 -7.148,20.055 -9.134,25.614"/>
     <path id="svg_135" stroke-miterlimit="10" stroke="#263238" fill="none" d="m473.985,276.147c0,0 12.971,8.051 21.021,7.603"/>
     <path id="svg_136" stroke-miterlimit="10" stroke="#263238" fill="none" d="m477.115,284.645c0,0 8.945,7.156 11.182,9.84"/>
     <line id="svg_137" stroke-miterlimit="10" stroke="#263238" fill="none" y2="320.873" x2="479.352" y1="312.502" x1="478.436"/>
     <path id="svg_138" stroke-miterlimit="10" stroke="#263238" fill="none" d="m478.904,269.438l0.447,9.393c0,0 3.131,3.578 1.789,7.156c-1.342,3.578 -4.92,6.262 -4.92,6.262l1.687,15.419"/>
    </g>
    <g id="svg_139">
     <path id="svg_140" stroke-miterlimit="10" stroke="#263238" fill="#FFFFFF" d="m417.886,272.328c0,0 1.629,-0.686 3.087,-0.514c1.458,0.172 8.833,4.03 9.176,4.373c0.343,0.343 4.545,1.286 4.545,1.286l0.257,2.144l-20.924,-1.543c0,0 0.514,-2.487 1.029,-3.001c0.515,-0.514 1.029,-0.858 1.029,-0.858l1.801,-1.887z"/>
     <polygon id="svg_141" stroke-miterlimit="10" stroke="#263238" fill="#FFFFFF" points="419.258,278.846 418.028,278.36 423.868,265.604      425.098,266.09    "/>
     <path id="svg_142" stroke-miterlimit="10" stroke="#263238" fill="#FFFFFF" d="m424.705,271.972c0,0 -5.163,4.17 -4.368,4.766c0.794,0.596 0.794,0.596 1.787,0.596s5.163,-2.383 5.361,-2.978c0.199,-0.597 -1.985,-2.582 -2.78,-2.384z"/>
     <path id="svg_143" stroke-miterlimit="10" stroke="#263238" fill="#FFFFFF" d="m417.886,272.328c0,0 -2.916,0.6 -2.83,1.372c0.086,0.772 1.629,3.344 1.972,3.859c0.343,0.514 1.629,1.029 1.972,0.429c0.343,-0.6 -1.029,-3.859 -0.943,-4.459l-0.171,-1.201z"/>
    </g>
    <g id="svg_144">
     <path id="svg_145" stroke-miterlimit="10" stroke="#263238" fill="#FFFFFF" d="m392.068,276.853c0,0 -3.223,0.752 -6.232,2.471s-7.092,2.579 -7.092,2.579s5.265,2.579 9.241,3.331c3.976,0.752 8.596,-0.107 8.596,-0.107s-2.149,-7.092 -4.513,-8.274z"/>
     <g id="svg_146">
      <path id="svg_147" stroke-miterlimit="10" stroke="#263238" fill="#FFFFFF" d="m433.442,277.532l-21.445,-0.397l-12.509,-2.184c0,0 -8.538,1.39 -9.332,2.78c-0.794,1.39 0.596,2.184 0.596,2.184l1.787,-0.199c0,0 1.39,5.361 2.383,6.354s3.971,1.589 4.766,1.589c0.794,0 13.304,-0.993 13.304,-0.993l28.99,2.978l-8.54,-12.112z"/>
      <path id="svg_148" stroke-miterlimit="10" stroke="#263238" fill="#92E3A9" d="m463.624,231.863c0,0 -3.574,5.163 -3.971,8.538c-0.397,3.376 -1.986,13.502 -1.986,13.502l-5.957,14.495l-10.325,4.766c0,0 -1.787,4.766 -0.199,8.935s4.964,6.751 4.964,6.751s15.289,-1.787 18.863,-4.567c3.574,-2.78 14.892,-22.438 15.289,-23.43c0.397,-0.993 9.332,-20.452 9.332,-20.452"/>
      <path id="svg_149" stroke-miterlimit="10" stroke="#263238" fill="#FFFFFF" d="m444.164,273.958c0,0 -0.397,-3.773 -3.177,-2.383c-2.78,1.39 -8.34,2.184 -7.545,5.957c0.794,3.773 3.971,9.134 6.354,11.318c2.383,2.184 5.56,2.184 8.935,0.794c3.376,-1.39 -4.964,-4.765 -4.567,-15.686z"/>
     </g>
    </g>
   </g>
  </g>
  <g id="Lamps">
   <g id="svg_150">
    <g id="svg_151">
     <g id="svg_152">
      <polygon id="svg_153" stroke-miterlimit="10" stroke="#263238" fill="#92E3A9" points="296.371,92.078 268.061,92.078 277.969,56.078       286.463,56.078     "/>
      <rect id="svg_154" stroke-miterlimit="10" stroke="#263238" fill="#92E3A9" height="14.269" width="8.748" y="41.81" x="277.842"/>
     </g>
     <line id="svg_155" stroke-miterlimit="10" stroke="#263238" fill="none" y2="14.185" x2="282.216" y1="41.679" x1="282.216"/>
    </g>
    <g id="svg_156">
     <g id="svg_157">
      <polygon id="svg_158" stroke-miterlimit="10" stroke="#263238" fill="#92E3A9" points="344.586,92.078 316.276,92.078 326.184,56.078       334.677,56.078     "/>
      <rect id="svg_159" stroke-miterlimit="10" stroke="#263238" fill="#92E3A9" height="14.269" width="8.748" y="41.81" x="326.057"/>
     </g>
     <line id="svg_160" stroke-miterlimit="10" stroke="#263238" fill="none" y2="14.185" x2="330.431" y1="41.679" x1="330.431"/>
    </g>
    <g id="svg_161">
     <g id="svg_162">
      <polygon id="svg_163" stroke-miterlimit="10" stroke="#263238" fill="#92E3A9" points="392.801,92.078 364.491,92.078 374.399,56.078       382.892,56.078     "/>
      <rect id="svg_164" stroke-miterlimit="10" stroke="#263238" fill="#92E3A9" height="14.269" width="8.748" y="41.81" x="374.272"/>
     </g>
     <line id="svg_165" stroke-miterlimit="10" stroke="#263238" fill="none" y2="14.185" x2="378.646" y1="41.679" x1="378.646"/>
    </g>
    <g id="svg_166">
     <g id="svg_167">
      <polygon id="svg_168" stroke-miterlimit="10" stroke="#263238" fill="#92E3A9" points="441.016,92.078 412.706,92.078 422.614,56.078       431.107,56.078     "/>
      <rect id="svg_169" stroke-miterlimit="10" stroke="#263238" fill="#92E3A9" height="14.269" width="8.748" y="41.81" x="422.487"/>
     </g>
     <line id="svg_170" stroke-miterlimit="10" stroke="#263238" fill="none" y2="14.185" x2="426.861" y1="41.679" x1="426.861"/>
    </g>
   </g>
  </g>
 </g>
</svg>